<svg xmlns="http://www.w3.org/2000/svg" width="201" height="101" viewBox="0 0 201 101">
    <g fill="none" fill-rule="evenodd" stroke="#E0E0E0" stroke-linecap="round" stroke-linejoin="round" stroke-width="3" transform="translate(2 2)">
        <path d="M0 97.5h197M6 95V0h184v95"/>
        <path d="M48 85c0 6.075-6.716 11-15 11-8.284 0-15-4.925-15-11"/>
        <path d="M37 87c0 4.418-2.91 8-6.5 8S24 91.418 24 87"/>
        <path d="M42 87c0 4.418-2.91 8-6.5 8S29 91.418 29 87M8 21c18.765-8.537 38.765-10.242 60-5.113M79 19c6.861 1.864 14.055 3.843 21.647 5.544 24.554 5.501 53.27 8.097 88.353-5.481M62.335 97c1.861-3.773 1.362-7.492-1.497-11.158-.053-.082-3.504-4.006 4-8.842.09.263-1.265 5.642 2.613 10 1.382 1.489 4.154 3.796 1.323 10M161 97v-5.509h4.748v-8.02h7.487v4.349h3.97V79H189M109.178 97c6.234-13.891 4.842-24.891-4.178-33M112.571 73.525c2.308-2.01 3.925-4.367 4.85-7.07M111.055 91.714c-3.09-1.116-5.66-2.864-7.71-5.243M111.055 73.597c-3.09-1.117-5.66-2.865-7.71-5.244M112.756 83.038c-2.21-.714-4.073-1.766-5.588-3.156M113.4 82.818c3.132-2.348 5.013-4.057 5.644-5.127M111.744 91.773c2.89-1.082 4.663-1.936 5.32-2.563"/>
        <circle cx="39.5" cy="47.5" r="2.5"/>
        <circle cx="60.5" cy="36.5" r="2.5"/>
        <circle cx="55.5" cy="52.5" r="2.5"/>
        <circle cx="38.5" cy="65.5" r="2.5"/>
        <circle cx="144.5" cy="70.5" r="2.5"/>
        <circle cx="135.5" cy="78.5" r="2.5"/>
        <circle cx="135.5" cy="58.5" r="2.5"/>
        <circle cx="142.5" cy="90.5" r="2.5"/>
        <circle cx="135.5" cy="41.5" r="2.5"/>
        <circle cx="147.5" cy="51.5" r="2.5"/>
    </g>
</svg>
