<svg xmlns="http://www.w3.org/2000/svg" width="24" height="24" viewBox="0 0 24 24">
    <path fill="#2C84FD" fill-rule="evenodd" d="M12 0C5.314 0 0 5.314 0 12s5.314 12 12 12 12-5.314 12-12S18.686 0 12 0zm0 22.286C6.343 22.286 1.714 17.657 1.714 12S6.343 1.714 12 1.714 22.286 6.343 22.286 12 17.657 22.286 12 22.286zm0-2.4c.757 0 1.371-.614 1.371-1.372 0-.757-.614-1.371-1.371-1.371s-1.371.614-1.371 1.371c0 .758.614 1.372 1.371 1.372zm.857-14.743h-1.2c-2.228 0-3.943 1.714-3.943 3.771v.343H9.43v-.343c0-1.028 1.028-2.057 2.228-2.057h1.372c1.2 0 2.057 1.029 2.057 2.057 0 1.029-1.029 2.229-2.229 2.229h-1.714v3.771h1.714v-2.057c2.057 0 3.772-1.714 3.772-3.771s-1.715-3.943-3.772-3.943z"/>
</svg>
