<svg xmlns="http://www.w3.org/2000/svg" width="16" height="14" viewBox="0 0 16 14">
    <path fill="#0052cc" fill-rule="evenodd" d="M8.004 2.947c2.008 0 3.638 1.65 3.638 3.685 0 .479-.095.928-.262 1.348l2.124 2.152A8.704 8.704 0 0 0 16 6.632c-1.259-3.235-4.366-5.527-8.004-5.527a8.378 8.378 0 0 0-2.895.516l1.571 1.592c.415-.17.859-.266 1.332-.266zM.728.936l1.659 1.68.334.339A8.689 8.689 0 0 0 0 6.632c1.259 3.234 4.366 5.526 8.004 5.526a8.474 8.474 0 0 0 3.187-.62l.305.31L13.628 14l.924-.936L1.652 0 .728.936zM4.75 5.01L5.88 6.153a2.104 2.104 0 0 0-.058.479c0 1.223.975 2.21 2.183 2.21.16 0 .32-.022.473-.059l1.127 1.142a3.57 3.57 0 0 1-1.6.39c-2.009 0-3.638-1.65-3.638-3.683 0-.583.145-1.128.385-1.621zm3.136-.575l2.292 2.32.015-.117c0-1.223-.975-2.21-2.183-2.21l-.124.007z"/>
</svg>
