<svg xmlns="http://www.w3.org/2000/svg" width="138" height="49" viewBox="0 0 138 49">
    <g fill="none" fill-rule="evenodd">
        <path stroke="#C2E8FF" stroke-linecap="round" stroke-width="1.5" d="M83.804 21.973h2.008"/>
        <path fill="#FFF" d="M73.517 17.677l7.527-7.58 25.594 25.774"/>
        <path stroke="#E0E0E0" stroke-linecap="round" stroke-linejoin="round" stroke-width="1.5" d="M22.328 35.618L56.454 1l24.59 24.51"/>
        <path stroke="#E0E0E0" stroke-linecap="round" stroke-linejoin="round" stroke-width="1.5" d="M56.454 1.253V28.29l-7.528-7.58-14.553 14.908M73.517 17.677l7.527-7.58 25.594 25.774M81.044 10.855v0z"/>
        <path fill="#E0E0E0" d="M71.219 11.88l1.294 4.281-1.163-.749-1.76-1.456.675-2.086a.5.5 0 0 1 .954.01zM106.113 30.885l1.278 4.228h-1.397l-1.526-1.952.688-2.276a.5.5 0 0 1 .957 0zM22.059 33.4l.52 1.966h-2.007l.52-1.965a.5.5 0 0 1 .967 0z"/>
        <path fill="#E0E0E0" d="M108.125 33.4l.52 1.966h-2.007l.52-1.965a.5.5 0 0 1 .967 0z"/>
        <path stroke="#E0E0E0" stroke-linecap="round" stroke-linejoin="round" stroke-width="1.5" d="M50.809 47.425c-1.818.38-2.946-1.447-2.946-1.447h-.002s-.861 1.503-2.628 1.503c-1.694 0-2.623-1.503-2.623-1.503h-.003s-.86 1.503-2.627 1.503c-1.694 0-2.623-1.503-2.623-1.503h-.003s-1.454 1.857-3.232 1.476M129.598 47.425c-1.817.38-2.946-1.447-2.946-1.447h-.002s-.86 1.503-2.628 1.503c-1.693 0-2.623-1.503-2.623-1.503h-.003s-.859 1.503-2.626 1.503c-1.694 0-2.623-1.503-2.623-1.503h-.003s-1.454 1.857-3.233 1.476M29.731 43.382c-1.818.38-2.946-1.447-2.946-1.447h-.002s-.86 1.503-2.628 1.503c-1.693 0-2.623-1.503-2.623-1.503h-.003s-.859 1.503-2.626 1.503c-1.695 0-2.623-1.503-2.623-1.503h-.003s-1.454 1.857-3.233 1.476M108.52 43.382c-1.817.38-2.945-1.447-2.945-1.447h-.002s-.86 1.503-2.628 1.503c-1.694 0-2.623-1.503-2.623-1.503h-.003s-.86 1.503-2.627 1.503c-1.694 0-2.623-1.503-2.623-1.503h-.003s-1.454 1.857-3.232 1.476"/>
        <path stroke="#E0E0E0" stroke-linecap="round" stroke-linejoin="round" stroke-width="1.5" d="M45.79 43.382c-1.817.38-2.946-1.447-2.946-1.447h-.002s-.86 1.503-2.628 1.503c-1.693 0-2.623-1.503-2.623-1.503h-.003s-.859 1.503-2.626 1.503c-1.695 0-2.623-1.503-2.623-1.503h-.003s-1.454 1.857-3.233 1.476M124.078 43.382c-1.818.38-2.946-1.447-2.946-1.447h-.002s-.86 1.503-2.628 1.503c-1.694 0-2.623-1.503-2.623-1.503h-.003s-.86 1.503-2.627 1.503c-1.694 0-2.623-1.503-2.623-1.503h-.002s-1.454 1.857-3.233 1.476M5.517 36.124H83.07"/>
        <path stroke="#E0E0E0" stroke-linecap="round" stroke-width="1.5" d="M1 36.124h1.506M87.066 36.124h49.397"/>
        <path fill="#FFF" d="M129.179 21.858l2.937 10.21a1 1 0 0 1-.96 1.276h-5.876a1 1 0 0 1-.96-1.276l2.937-10.21a1 1 0 0 1 1.922 0z"/>
        <path stroke="#E0E0E0" stroke-linecap="round" stroke-linejoin="round" stroke-width="1.5" d="M128.218 19.78l4.265 13.564h-8.531zM128.218 21.297v0z"/>
        <path stroke="#E0E0E0" stroke-linecap="round" stroke-linejoin="round" stroke-width="1.5" d="M130.225 27.109c-1.338 1.632-2.007 2.475-2.007 2.527 0-.052.669-.895 2.007-2.527z"/>
        <path fill="#FFF" d="M120.1 10.855l6.153 21.21a1 1 0 0 1-.96 1.28h-10.386a1 1 0 0 1-.96-1.28l6.153-21.21z"/>
        <path stroke="#E0E0E0" stroke-linecap="round" stroke-linejoin="round" stroke-width="1.5" d="M120.188 11.36l6.524 21.984h-13.048zM120.188 12.876v0z"/>
        <path stroke="#E0E0E0" stroke-linecap="round" stroke-linejoin="round" stroke-width="1.5" d="M117.34 21.973c1.84 1.789 2.76 2.715 2.76 2.78 0-.065-.92-.991-2.76-2.78zM120.35 28.543c2.343-2.76 3.514-4.107 3.514-4.043 0-.064-1.171 1.283-3.513 4.043z"/>
        <path fill="#FFF" d="M44.388 11.719l1.606 1.843-3.64 3.46h-3.67z"/>
        <path stroke="#E0E0E0" stroke-linecap="round" stroke-width="1.5" d="M29.605 10.875h4.768c-.181-1.378.271-2.53 1.357-3.458 1.246-1.034 2.726-.803 3.52-.446.796.357 1.386.848 1.795 1.773.173.39.291.72.354.989"/>
        <path stroke="#E0E0E0" stroke-linecap="round" stroke-width="1.5" d="M39.391 11.637c.265-.928.809-1.534 1.631-1.82 1.234-.428 2.404.142 2.871.716.468.574.616 1.034.704 1.515.059.32.08.691.064 1.112h1.044c.972.261 1.462.843 1.469 1.746.012 1.612-1.16 2.013-1.76 2.013H25.59M23.081 13.887h16.31M18.565 13.887h2.007"/>
    </g>
</svg>
