<svg xmlns="http://www.w3.org/2000/svg" xmlns:xlink="http://www.w3.org/1999/xlink" width="106" height="96" viewBox="0 0 106 96">
    <defs>
        <filter id="prefix__a" width="116.7%" height="124.2%" x="-8.4%" y="-10.3%" filterUnits="objectBoundingBox">
            <feOffset dy="1" in="SourceAlpha" result="shadowOffsetOuter1"/>
            <feGaussianBlur in="shadowOffsetOuter1" result="shadowBlurOuter1" stdDeviation="2"/>
            <feColorMatrix in="shadowBlurOuter1" values="0 0 0 0 0 0 0 0 0 0 0 0 0 0 0 0 0 0 0.100661058 0"/>
        </filter>
        <path id="prefix__b" d="M89.904 61.553c1.105 0 2 .895 2 2v12.376c0 1.105-.895 2-2 2H16.096c-1.105 0-2-.895-2-2V63.553c0-1.105.895-2 2-2h73.808zm0-18.635c1.105 0 2 .895 2 2v12.376c0 1.105-.895 2-2 2H16.096c-1.105 0-2-.895-2-2V44.918c0-1.105.895-2 2-2h73.808zm0-18.636c1.105 0 2 .896 2 2V38.66c0 1.104-.895 2-2 2H16.096c-1.105 0-2-.896-2-2V26.282c0-1.104.895-2 2-2h73.808z"/>
    </defs>
    <g fill="none" fill-rule="evenodd">
        <path fill="#F6FBFF" d="M39.14 93.649S7.33 86.223 7.33 56.855C7.33 27.488 31.52 3.372 47.465.572c15.943-2.8 20.052 4.882 25.177 18.763 5.126 13.88 28.666 10.193 33.041 33.926 2.053 11.132-5.515 30.188-33.04 40.388-7.42 2.749-33.504 0-33.504 0z"/>
        <g transform="translate(0 3.528)">
            <rect width="5.074" height="5.082" y="35.436" stroke="#F7C762" rx="2"/>
            <path stroke="#F87979" d="M34.402 1.646l.407.42c.752.776.752 2.009 0 2.784l-.407.42c-.77.794-2.035.813-2.828.045l-.044-.044-.408-.42c-.752-.776-.752-2.01 0-2.785l.408-.42c.769-.793 2.035-.813 2.828-.044l.044.044z"/>
            <path stroke="#7BB5E1" d="M70.76 13.977c1.402 0 2.538-1.137 2.538-2.54 0-1.404-1.136-2.542-2.537-2.542-1.402 0-2.538 1.138-2.538 2.541 0 1.404 1.136 2.541 2.538 2.541z"/>
        </g>
        <g fill-rule="nonzero">
            <use fill="#000" filter="url(#prefix__a)" xlink:href="#prefix__b"/>
            <use fill="#FFF" xlink:href="#prefix__b"/>
        </g>
        <path fill="#848FA9" fill-rule="nonzero" d="M37.777 67.765v1.694h-19.17v-1.694h19.17zm38.904 0v1.694H57.51v-1.694h19.17zM37.777 48v1.694h-19.17V48h19.17zm38.904 0v1.694H57.51V48h19.17zM37.777 29.93v1.694h-19.17v-1.695h19.17zm38.904 0v1.694H57.51v-1.695h19.17z"/>
        <path fill="#D5DBE6" fill-rule="nonzero" d="M49.053 71.718v1.694H19.17v-1.694h29.883zm38.904 0v1.694H58.074v-1.694h29.883zM49.053 51.953v1.694H19.17v-1.694h29.883zm38.904 0v1.694H58.074v-1.694h29.883zM49.053 33.318v1.694H19.17v-1.694h29.883zm38.904 0v1.694H58.074v-1.694h29.883z"/>
        <path stroke="#F3F3F3" stroke-linecap="square" d="M53 27.671L53 36.706M53 46.871L53 55.906M53 65.506L53 74.541"/>
        <path fill="#D5DBE6" fill-rule="nonzero" d="M77.245 94.87c.311 0 .564.253.564.565 0 .29-.218.529-.499.561l-.065.004h-64.84c-.312 0-.565-.253-.565-.565 0-.29.218-.528.499-.56l.065-.004h64.84zm17.478 0c.312 0 .564.253.564.565 0 .29-.217.529-.498.561l-.066.004H81.191c-.31 0-.563-.253-.563-.565 0-.29.217-.528.498-.56l.065-.004h13.532zm7.33 0c.312 0 .564.253.564.565 0 .29-.218.529-.498.561l-.066.004H96.98c-.312 0-.564-.253-.564-.565 0-.29.218-.528.498-.56l.066-.004h5.074z"/>
    </g>
</svg>
