<svg xmlns:xlink="http://www.w3.org/1999/xlink" version="1.1" width="16" height="16" viewBox="0 0 20 20" xmlns="http://www.w3.org/2000/svg"><g fill="none" fill-rule="evenodd" id="Page-1" stroke="none" stroke-width="1"><g id="TA-Desktop" stroke="#b2b2b2" stroke-width="1.25" transform="translate(-999.000000, -168.000000)"><path d="M1012.24362,180.53125 L1017.62943,186.033203 C1017.73333,186.138672 1017.78529,186.270507 1017.78529,186.428711 C1017.78529,186.586915 1017.73333,186.718749 1017.62943,186.824219 C1017.51398,186.941407 1017.38121,187 1017.23112,187 C1017.08103,187 1016.94826,186.941407 1016.83281,186.824219 L1011.46432,181.339844 C1010.85243,181.878909 1010.15973,182.30078 1009.3862,182.605469 C1008.61267,182.910158 1007.79297,183.0625 1006.92708,183.0625 C1005.96883,183.0625 1005.06832,182.877932 1004.22552,182.508789 C1003.38272,182.139647 1002.64673,181.638675 1002.01751,181.005859 C1001.3883,180.373044 1000.89475,179.628911 1000.53685,178.773438 C1000.17895,177.917964 1000,177.003911 1000,176.03125 C1000,175.058589 1000.17895,174.144536 1000.53685,173.289062 C1000.89475,172.433589 1001.3883,171.689456 1002.01751,171.056641 C1002.64673,170.423825 1003.38272,169.922853 1004.22552,169.553711 C1005.06832,169.184568 1005.96883,169 1006.92708,169 C1007.87379,169 1008.76853,169.184568 1009.61133,169.553711 C1010.45413,169.922853 1011.19012,170.423825 1011.81934,171.056641 C1012.44855,171.689456 1012.94499,172.433589 1013.30866,173.289062 C1013.67233,174.144536 1013.85417,175.058589 1013.85417,176.03125 C1013.85417,176.886723 1013.70985,177.698238 1013.42122,178.46582 C1013.13259,179.233402 1012.74006,179.921872 1012.24362,180.53125 Z M1004.6498,181.489258 C1005.35983,181.799806 1006.11892,181.955078 1006.92708,181.955078 C1007.7237,181.955078 1008.47701,181.799806 1009.18704,181.489258 C1009.89707,181.178709 1010.51473,180.753909 1011.04004,180.214844 C1011.56535,179.675779 1011.98097,179.048832 1012.28691,178.333984 C1012.59286,177.619137 1012.74583,176.851567 1012.74583,176.03125 C1012.74583,175.210933 1012.59286,174.443363 1012.28691,173.728516 C1011.98097,173.013668 1011.56535,172.386721 1011.04004,171.847656 C1010.51473,171.308591 1009.89707,170.883791 1009.18704,170.573242 C1008.47701,170.262694 1007.7237,170.107422 1006.92708,170.107422 C1006.11892,170.107422 1005.35983,170.262694 1004.6498,170.573242 C1003.93978,170.883791 1003.32212,171.308591 1002.79681,171.847656 C1002.2715,172.386721 1001.85588,173.013668 1001.54993,173.728516 C1001.24399,174.443363 1001.09102,175.210933 1001.09102,176.03125 C1001.09102,176.851567 1001.24399,177.619137 1001.54993,178.333984 C1001.85588,179.048832 1002.2715,179.675779 1002.79681,180.214844 C1003.32212,180.753909 1003.93978,181.178709 1004.6498,181.489258 Z" id="search"></path></g></g></svg>