<svg xmlns="http://www.w3.org/2000/svg" width="16" height="14" viewBox="0 0 16 14">
    <g fill="#0052cc" fill-rule="nonzero">
        <path d="M11.861 3.5H8.75v1.409h3.111c1.33 0 2.411 1.03 2.411 2.299 0 1.06-.762 1.95-1.796 2.21L13.61 10.5c1.268-.615 2.139-1.846 2.139-3.292 0-2.047-1.742-3.708-3.889-3.708z"/>
        <path d="M10.5 6.125H8.75l1.598 1.75h.152zM0 .988l2.419 2.419A3.882 3.882 0 0 0 0 7a3.89 3.89 0 0 0 3.889 3.889H7V9.41H3.889A2.413 2.413 0 0 1 1.478 7c0-1.237.94-2.256 2.146-2.388l1.61 1.61h-.567v1.556H6.79l1.766 1.765v1.346H9.9L13.02 14l.98-.98L.988 0 0 .988z"/>
    </g>
</svg>
